# xmcd CD database file
#
# Track frame offsets:
#	150
#	41965
#	57177
#	91249
#	132205
#	153101
#
# Disc length: 2544 seconds
#
# Revision: 1
# Processed by: cddbd v1.5.2PL0 Copyright (c) Steve Scherf et al.
# Submitted via: CDex 1.51
#
DISCID=4509ee06
DTITLE=James Brown - Get Up Offa That Thing [2007 Remaster]
DYEAR=1976
DGENRE=Soul
TTITLE0=Medley: Get Up Offa That Thing - Release The Pressure
TTITLE1=You Took My Heart
TTITLE2=I Refuse To Loose
TTITLE3=Can't Take It With You
TTITLE4=Home Again
TTITLE5=This Feeling
EXTD=YEAR: 1976
EXTT0=
EXTT1=
EXTT2=
EXTT3=
EXTT4=
EXTT5=
PLAYORDER=
